<svg xmlns="http://www.w3.org/2000/svg" viewBox="0 0 512 512" fill="none">
  <rect width="512" height="512" rx="96" fill="#0F172A"/>
  <!-- S mark: 1431x1100 → scale 0.28 → 400x308, centered in 512x512 -->
  <g transform="translate(56,102) scale(0.2796)" fill="#FFFFFF" stroke="none">
    <g transform="translate(-241.6,1623.4) scale(0.1,-0.1)">
      <path d="M7650 16230 c-185 -6 -231 -11 -445 -46 -195 -33 -362 -80 -570 -161 -321 -127 -594 -320 -761 -542 -35 -46 -64 -90 -64 -96 0 -7 9 -24 21 -39 20 -25 20 -28 5 -67 -22 -55 -22 -298 0 -377 61 -220 130 -319 316 -459 147 -110 299 -186 608 -307 52 -20 111 -43 130 -51 19 -7 89 -34 155 -60 66 -25 136 -52 155 -60 218 -84 326 -126 390 -150 22 -8 57 -21 78 -29 20 -8 80 -31 132 -51 52 -20 133 -54 180 -75 47 -21 173 -75 280 -120 107 -45 222 -95 254 -112 l59 -29 111 11 c80 8 939 11 3106 10 l2995 -2 80 21 c114 30 227 88 322 165 100 81 121 107 215 271 41 72 119 207 173 300 54 94 154 269 222 390 69 121 139 243 157 270 18 28 63 106 101 175 108 197 268 477 346 607 66 109 216 373 296 520 31 56 32 63 17 77 -14 15 -206 16 -2067 17 -1129 1 -3121 2 -4427 3 -1306 1 -2463 -1 -2570 -4z"/>
      <path d="M5675 15202 c-26 -29 -111 -172 -178 -297 -35 -66 -78 -140 -94 -165 -17 -25 -61 -99 -98 -165 -37 -66 -103 -181 -145 -255 -43 -74 -114 -200 -158 -280 -43 -80 -94 -170 -112 -200 -19 -30 -63 -109 -100 -175 -37 -66 -105 -190 -153 -275 -112 -202 -226 -485 -263 -654 -22 -103 -44 -280 -44 -361 0 -190 50 -397 133 -558 126 -240 276 -422 497 -599 74 -59 251 -173 330 -213 77 -39 355 -161 400 -175 14 -5 50 -18 80 -30 64 -24 207 -73 365 -123 61 -20 135 -45 165 -57 30 -12 127 -46 215 -75 161 -55 468 -160 625 -216 47 -16 157 -54 245 -84 88 -30 225 -78 305 -106 80 -28 179 -61 220 -74 167 -54 446 -148 665 -226 127 -45 618 -212 745 -254 106 -34 507 -171 555 -189 83 -31 337 -120 535 -186 543 -183 830 -281 880 -300 80 -31 490 -177 590 -210 14 -5 70 -25 125 -45 55 -20 172 -60 260 -90 88 -30 246 -84 350 -120 105 -36 242 -83 305 -105 63 -21 153 -53 200 -71 47 -17 110 -39 140 -49 30 -10 118 -47 195 -82 77 -36 201 -91 275 -124 179 -78 546 -265 635 -322 278 -179 372 -253 501 -396 132 -146 228 -318 265 -471 18 -78 21 -110 16 -240 -2 -82 -9 -162 -15 -177 -21 -52 13 -83 49 -45 30 31 563 929 659 1110 23 44 77 136 119 205 43 70 99 168 126 217 26 50 73 132 102 183 77 132 126 239 173 383 165 498 180 869 53 1249 -83 246 -174 401 -386 653 -50 59 -271 257 -348 310 -168 119 -471 292 -604 345 -119 48 -285 112 -340 131 -115 39 -253 90 -306 111 -279 114 -295 119 -579 216 -91 31 -185 66 -210 76 -25 11 -76 30 -115 43 -38 13 -95 33 -125 45 -30 12 -68 25 -85 30 -16 4 -95 31 -175 60 -80 29 -181 65 -225 80 -44 16 -118 42 -165 60 -47 17 -137 48 -200 70 -63 21 -155 53 -205 71 -205 73 -286 101 -395 139 -169 58 -300 105 -345 125 -22 9 -58 23 -80 30 -22 7 -74 25 -115 40 -41 15 -156 56 -255 91 -99 34 -259 90 -355 124 -96 34 -206 72 -245 85 -38 13 -115 40 -170 60 -55 19 -138 49 -185 65 -141 48 -312 108 -370 130 -30 12 -74 28 -97 36 -23 8 -79 28 -125 45 -46 17 -117 41 -158 54 -41 13 -120 40 -175 60 -55 20 -131 47 -170 60 -38 13 -108 38 -155 56 -125 46 -202 73 -320 108 -127 39 -351 117 -520 181 -30 11 -82 30 -115 41 -33 11 -94 34 -135 51 -41 16 -91 35 -110 42 -46 18 -196 74 -240 91 -19 7 -89 34 -155 60 -174 67 -181 70 -280 105 -242 86 -575 219 -650 259 -296 157 -401 232 -527 376 -84 97 -154 223 -179 325 -18 71 -18 277 -2 307 23 40 -14 79 -42 45z"/>
      <path d="M4580 8224 c-159 -24 -336 -86 -477 -165 -85 -49 -263 -255 -322 -374 -19 -38 -60 -113 -91 -165 -31 -52 -92 -160 -135 -240 -43 -80 -89 -163 -103 -184 -13 -21 -56 -98 -96 -170 -40 -72 -107 -192 -150 -266 -171 -297 -330 -579 -368 -655 -22 -44 -77 -143 -122 -220 -46 -77 -116 -198 -156 -270 -40 -71 -85 -149 -101 -172 -48 -73 -51 -80 -33 -97 14 -15 482 -16 5122 -16 5302 1 5361 1 5672 40 158 20 352 56 485 90 489 126 1016 425 1223 694 41 53 47 68 48 111 1 27 14 84 29 125 27 73 28 82 29 275 1 209 -6 256 -59 380 -70 166 -343 456 -560 597 -75 48 -480 259 -580 301 -33 14 -125 56 -205 92 -164 74 -273 121 -375 160 -38 15 -117 52 -175 83 l-105 56 -4160 1 c-3037 0 -4180 -3 -4235 -11z"/>
    </g>
  </g>
</svg>
